# xmcd
#
# Track frame offsets: 
#        150
#        17710
#        39910
#        87800
#        153977
#        198395
#        251905
#        299002
#
# Disc length: 4303 seconds
#
# Revision: 4
# Processed by: cddbd v1.5.2PL0 Copyright (c) Steve Scherf et al.
# Submitted via: ExactAudioCopy v0.99pb5
#
DISCID=6810cd08
DTITLE=Santana - Pilz
DYEAR=1993
DGENRE=Rock
TTITLE0=As Tears Go By
TTITLE1=Soul Sacrifice
TTITLE2=Fried Neckbones And Home Fries
TTITLE3=Santana Jam
TTITLE4=Jingo
TTITLE5=El Corazon Manda
TTITLE6=La Puerta Del Sol
TTITLE7=Persuasion
EXTD=
EXTT0=
EXTT1=
EXTT2=
EXTT3=
EXTT4=
EXTT5=
EXTT6=
EXTT7=
PLAYORDER=
